HIERARCHY
ROOT Hips
{
	OFFSET	0.00	0.00	0.00
	CHANNELS 6 Xposition Yposition Zposition Zrotation Xrotation Yrotation
	JOINT LeftUpLeg
	{
		OFFSET	 0.126116	-0.065224	 0.014019
		CHANNELS 3 Zrotation Xrotation Yrotation
		JOINT LeftLeg
		{
			OFFSET	 0.000000	 0.569914	 0.000000
			CHANNELS 3 Zrotation Xrotation Yrotation
			JOINT LeftFoot
			{
				OFFSET	 0.000000	 0.544423	 0.000000
				CHANNELS 3 Zrotation Xrotation Yrotation
				JOINT LeftToeBase
				{
					OFFSET	 0.000000	 0.207117	 0.000000
					CHANNELS 3 Zrotation Xrotation Yrotation
					End Site
					{
						OFFSET	 0.000000	 0.207117	 0.000000
					}
				}
			}
		}
	}
	JOINT RightUpLeg
	{
		OFFSET	-0.124023	-0.065224	 0.008373
		CHANNELS 3 Zrotation Xrotation Yrotation
		JOINT RightLeg
		{
			OFFSET	 0.000000	 0.570047	 0.000000
			CHANNELS 3 Zrotation Xrotation Yrotation
			JOINT RightFoot
			{
				OFFSET	 0.000000	 0.544354	 0.000000
				CHANNELS 3 Zrotation Xrotation Yrotation
				JOINT RightToeBase
				{
					OFFSET	 0.000000	 0.207540	 0.000000
					CHANNELS 3 Zrotation Xrotation Yrotation
					End Site
					{
						OFFSET	 0.000000	 0.207540	 0.000000
					}
				}
			}
		}
	}
	JOINT Spine
	{
		OFFSET	 0.000184	 0.117403	 0.007763
		CHANNELS 3 Zrotation Xrotation Yrotation
		JOINT Spine1
		{
			OFFSET	 0.000000	 0.137269	 0.000000
			CHANNELS 3 Zrotation Xrotation Yrotation
			JOINT Spine2
			{
				OFFSET	 0.000000	 0.156879	 0.000000
				CHANNELS 3 Zrotation Xrotation Yrotation
				JOINT LeftShoulder
				{
					OFFSET	 0.080501	 0.160143	 0.002496
					CHANNELS 3 Zrotation Xrotation Yrotation
					JOINT LeftArm
					{
						OFFSET	 0.000000	 0.164363	 0.000000
						CHANNELS 3 Zrotation Xrotation Yrotation
						JOINT LeftForeArm
						{
							OFFSET	 0.000000	 0.364576	 0.000000
							CHANNELS 3 Zrotation Xrotation Yrotation
							JOINT LeftHand
							{
								OFFSET	 0.000000	 0.360812	 0.000000
								CHANNELS 3 Zrotation Xrotation Yrotation
								JOINT LeftHandIndex1
								{
									OFFSET	 0.000000	 0.086006	 0.000000
									CHANNELS 3 Zrotation Xrotation Yrotation
									JOINT LeftHandIndex2
									{
										OFFSET	 0.000000	 0.047237	 0.000000
										CHANNELS 3 Zrotation Xrotation Yrotation
										JOINT LeftHandIndex3
										{
											OFFSET	-0.004284	 0.038165	 0.000551
											CHANNELS 3 Zrotation Xrotation Yrotation
											End Site
											{
												OFFSET	-0.004284	 0.038165	 0.000551
											}
										}
									}
								}
							}
						}
					}
				}
				JOINT Neck
				{
					OFFSET	 0.000000	 0.176489	 0.000000
					CHANNELS 3 Zrotation Xrotation Yrotation
					JOINT Head
					{
						OFFSET	 0.000000	 0.077941	 0.001747
						CHANNELS 3 Zrotation Xrotation Yrotation
						End Site
						{
							OFFSET	 0.000000	 0.077941	 0.001747
						}
					}
				}
				JOINT RightShoulder
				{
					OFFSET	-0.080363	 0.159706	-0.000306
					CHANNELS 3 Zrotation Xrotation Yrotation
					JOINT RightArm
					{
						OFFSET	 0.000000	 0.164196	 0.000000
						CHANNELS 3 Zrotation Xrotation Yrotation
						JOINT RightForeArm
						{
							OFFSET	 0.000000	 0.365611	 0.000000
							CHANNELS 3 Zrotation Xrotation Yrotation
							JOINT RightHand
							{
								OFFSET	 0.000000	 0.360648	 0.000000
								CHANNELS 3 Zrotation Xrotation Yrotation
								JOINT RightHandIndex1
								{
									OFFSET	 0.000000	 0.069977	 0.000000
									CHANNELS 3 Zrotation Xrotation Yrotation
									JOINT RightHandIndex2
									{
										OFFSET	 0.000000	 0.052305	 0.000000
										CHANNELS 3 Zrotation Xrotation Yrotation
										JOINT RightHandIndex3
										{
											OFFSET	 0.009002	 0.042196	 0.000782
											CHANNELS 3 Zrotation Xrotation Yrotation
											End Site
											{
												OFFSET	 0.009002	 0.042196	 0.000782
											}
										}
									}
								}
							}
						}
					}
				}
			}
		}
	}
}
MOTION
Frames:    13
Frame Time: 0.03333334
-0.003803	 1.233668	 0.011389	 0.977247	 0.358284	 172.348100	-159.762100	 8.997897	-34.000180	 3.334827	-12.325400	 2.490940	-8.605021	 57.265930	 1.954401	 1.162021	 26.689190	-2.659656	 169.494000	 10.019760	 25.902410	-2.494214	-29.873020	 7.826675	 13.431690	 76.124070	-9.037222	-1.288989	 28.372430	 2.710516	 2.584929	 6.849452	 11.075510	-6.157714	 2.341632	 5.454133	 8.854794	-1.440262	-13.628290	-113.195400	 6.483905	 92.935010	 25.912200	 48.157010	 0.261659	 5.010965	-0.258993	-0.072501	 17.465010	 20.419840	 42.002520	 0.561178	 8.652261	-0.355721	-5.949625	 13.577840	 1.517980	 4.985970	-3.513325	-0.334722	 3.185830	-6.825668	 0.871011	-1.199451	-5.908705	-0.219922	 123.459200	 10.373570	-96.383450	-8.831612	 38.617940	-0.621016	-5.100563	-0.200555	 0.049580	 5.572402	 8.237823	 10.617050	-2.307748	 4.845225	 0.896267	 12.530440	 22.792520	-5.133874	-8.499888	 13.014950	-0.519991
-0.011467	 1.241014	 0.074831	 0.947365	-0.424790	 171.972600	-159.193200	 11.407910	-34.488820	 3.885265	-14.279300	 2.472563	-8.320206	 57.565740	 1.779195	 1.161708	 26.684950	-2.659532	 169.977700	 13.233860	 26.189600	-2.266651	-27.606960	 7.790580	 7.377320	 72.238020	-5.094370	-1.288689	 28.368490	 2.710389	 2.699639	 6.561263	 11.708470	-6.570427	 0.645472	 5.452696	 9.057069	 0.491737	-13.360050	-113.059100	 6.503049	 92.949360	 26.512290	 48.337170	-0.072917	 4.898880	-0.252584	-0.064445	 15.755850	 20.679700	 42.788130	 0.667072	 8.323737	-0.355042	-5.948277	 13.651650	 1.525895	 4.991313	-3.396015	-0.331891	 3.181960	-6.828546	 0.893298	-1.207748	-5.738938	-0.021889	 123.367800	 10.388450	-96.373880	-9.276520	 39.142360	-0.227007	-4.971003	-0.195057	 0.041533	 6.640829	 8.655909	 10.822420	-2.346034	 4.965144	 0.894743	 12.553370	 23.108850	-5.210296	-8.502163	 13.273880	-0.536337
-0.023441	 1.249326	 0.144715	 0.786896	-1.373162	 170.755300	-159.461500	 11.453390	-35.740470	 3.098757	-11.477720	 1.802585	-7.413164	 55.548050	 1.673129	 1.160642	 26.670530	-2.659109	 170.909900	 15.724340	 25.745430	-1.774491	-22.381480	 7.503426	 1.490358	 66.309180	-1.636449	-1.287670	 28.355070	 2.709958	 2.834738	 6.272229	 13.522340	-8.260116	-0.930761	 6.201574	 9.726319	 2.227968	-12.458300	-112.594300	 6.568622	 92.997930	 27.365250	 48.431700	-0.247664	 4.814854	-0.246157	-0.035661	 13.863820	 21.056240	 44.288240	 1.027665	 7.203248	-0.348124	-5.943756	 13.903210	 1.552873	 5.009472	-2.996190	-0.322328	 3.168779	-6.838373	 0.969249	-1.226309	-5.675740	 0.704439	 123.056100	 10.439090	-96.341130	-9.420846	 40.302270	 0.142660	-4.870129	-0.189330	 0.012706	 7.015158	 8.564925	 12.235740	-2.476554	 5.373869	 0.890150	 12.635480	 24.187440	-5.473369	-8.509366	 14.156720	-0.592127
-0.036047	 1.254910	 0.187097	 0.590577	-2.131527	 169.113100	-160.255700	 9.727804	-37.358580	 1.688403	-6.315307	 0.908469	-6.690289	 52.710240	 2.008734	 1.159188	 26.650840	-2.658532	 171.926700	 16.134850	 24.707870	-1.237844	-16.137620	 7.005354	-1.937154	 60.832410	 0.233651	-1.286278	 28.336760	 2.709369	 2.949485	 6.114709	 15.925740	-10.552460	-1.833026	 7.487202	 10.572290	 3.205700	-11.188630	-111.959700	 6.658798	 93.063410	 28.353180	 48.167780	-0.349336	 4.796289	-0.242336	 0.003994	 12.284850	 21.573180	 45.983260	 1.519527	 5.671700	-0.327229	-5.937773	 14.246670	 1.589722	 5.034150	-2.450255	-0.309480	 3.150805	-6.851816	 1.072938	-1.254063	-5.724964	 1.721402	 122.630400	 10.507950	-96.295960	-9.310505	 41.655470	 0.423294	-4.846484	-0.186221	-0.026979	 6.598374	 8.109584	 14.374690	-2.654869	 5.931980	 0.885386	 12.757760	 25.661020	-5.839450	-8.517809	 15.362850	-0.668528
-0.045841	 1.255840	 0.187625	 0.358408	-2.791434	 166.670500	-159.376700	 10.797030	-40.162330	 2.389188	-8.899374	-0.019285	-8.756493	 54.229520	 4.165524	 1.156993	 26.621120	-2.657662	 172.045600	 16.412610	 23.350520	-1.106024	-14.293110	 5.922127	-3.743395	 59.092950	 2.329817	-1.284178	 28.309120	 2.708482	 2.954663	 6.098124	 19.494950	-13.910870	-2.177164	 9.708909	 11.698120	 3.567084	-9.195539	-111.002000	 6.796201	 93.160310	 29.992150	 47.093910	-0.627755	 4.873084	-0.242009	 0.064397	 10.481140	 22.538890	 48.220410	 2.261759	 3.358401	-0.270774	-5.929160	 14.764900	 1.645361	 5.071141	-1.626427	-0.290545	 3.123730	-6.872158	 1.229380	-1.301740	-5.892937	 3.291456	 121.987800	 10.611220	-96.226750	-9.101528	 43.422490	 0.833574	-4.925946	-0.186057	-0.087293	 5.290218	 7.299608	 17.702390	-2.924234	 6.774211	 0.881497	 12.965710	 27.885440	-6.408298	-8.527470	 17.184000	-0.784433
-0.058439	 1.257263	 0.187503	 0.002492	-3.715061	 163.529300	-158.293800	 11.762330	-43.790970	 3.059634	-11.336750	-1.222995	-11.501260	 55.675780	 7.065456	 1.154155	 26.582660	-2.656538	 172.333900	 16.421630	 21.470620	-0.845535	-11.022030	 4.620670	-5.822522	 56.374810	 4.735675	-1.281462	 28.273360	 2.707336	 2.674925	 5.623163	 23.992690	-17.643780	-2.181262	 12.782430	 12.731620	 3.216616	-6.501850	-109.762100	 6.976448	 93.282350	 31.770350	 45.780610	-0.773000	 4.969463	-0.241341	 0.142470	 9.027874	 23.358470	 50.813080	 3.225292	 0.363129	-0.153216	-5.918756	 15.435750	 1.717465	 5.118609	-0.559944	-0.266831	 3.088766	-6.898600	 1.431877	-1.370040	-6.198504	 5.374347	 121.155500	 10.743760	-96.135410	-8.720896	 45.837140	 1.295604	-5.026306	-0.185735	-0.165258	 2.933883	 5.583663	 21.858910	-3.273612	 7.864523	 0.882389	 13.280100	 30.763730	-7.177846	-8.534325	 19.542370	-0.935882
-0.073485	 1.259127	 0.185438	-0.459323	-4.808791	 159.940500	-157.008900	 12.669870	-47.987140	 3.763279	-13.849160	-2.589973	-14.945640	 57.140210	 10.682440	 1.150890	 26.538390	-2.655249	 172.917500	 15.401400	 19.225900	-0.388144	-5.109386	 3.134864	-7.773025	 52.159960	 6.949553	-1.278338	 28.232190	 2.706019	 2.188340	 4.607696	 28.661880	-20.708440	-2.169336	 16.175000	 13.173500	 2.382485	-3.117074	-108.335000	 7.187078	 93.417930	 33.334290	 44.774070	-0.635692	 5.072796	-0.240293	 0.232136	 8.531469	 23.559200	 52.628830	 4.342785	-3.079228	 0.044522	-5.907825	 16.207880	 1.800594	 5.172697	 0.667515	-0.240630	 3.048637	-6.929185	 1.664945	-1.454605	-6.625588	 7.867039	 120.196900	 10.894660	-96.027820	-8.840232	 48.478640	 2.288365	-5.132902	-0.184998	-0.254867	 0.148709	 2.813712	 25.594370	-3.676971	 9.119336	 0.891752	 13.712060	 34.069730	-8.117632	-8.534018	 22.255910	-1.112742
-0.084884	 1.260168	 0.182285	-0.740751	-5.417970	 157.459300	-156.010100	 13.199270	-50.912750	 4.352001	-15.909260	-3.487730	-17.751130	 58.290680	 13.575860	 1.148636	 26.507800	-2.654359	 172.771000	 16.431320	 17.807470	-0.386876	-5.092908	 2.072803	-8.966168	 51.309840	 8.741398	-1.276182	 28.203750	 2.705112	 1.964515	 3.980679	 30.625780	-21.828860	-2.600697	 17.767670	 12.612080	 2.050246	 0.587705	-107.349300	 7.334460	 93.508510	 33.899460	 44.571750	-0.242055	 5.143192	-0.239467	 0.294005	 9.357999	 22.488450	 50.128280	 5.122969	-5.449957	 0.220590	-5.900933	 16.741250	 1.858120	 5.209737	 1.515294	-0.223206	 3.020987	-6.950409	 1.825948	-1.538031	-6.914439	 9.948909	 119.534200	 10.997850	-95.951980	-9.649926	 50.153500	 3.588109	-5.199313	-0.184206	-0.316676	-2.112285	 0.207696	 24.507320	-3.956533	 9.985910	 0.903475	 14.059460	 36.345760	-8.806219	-8.528451	 24.128360	-1.236887
-0.092202	 1.260314	 0.179549	-0.623581	-5.553012	 156.215400	-155.198300	 13.399770	-52.452610	 4.813913	-17.495740	-3.193285	-18.553450	 59.285450	 14.210290	 1.147174	 26.487950	-2.653784	 172.793600	 16.649330	 16.999680	-0.380074	-5.084963	 1.504780	-9.528772	 50.865590	 9.806960	-1.275695	 28.197310	 2.704907	 1.948848	 3.981992	 30.234520	-21.928660	-3.070788	 18.052390	 11.414730	 2.030725	 4.618021	-106.749000	 7.245270	 93.510260	 34.007340	 44.542010	-0.441459	 5.173082	-0.238915	 0.323286	 10.668580	 19.703160	 44.036910	 5.462237	-6.472360	 0.350039	-5.897948	 16.986290	 1.884578	 5.226608	 1.903267	-0.215412	 3.003094	-6.938606	 1.936691	-1.684297	-6.976168	 11.730430	 119.048800	 11.057470	-95.864440	-10.918710	 51.218540	 4.694947	-5.219570	-0.183427	-0.345921	-4.387275	-3.191780	 19.153420	-4.113844	 10.480310	 0.916196	 14.288210	 37.702220	-9.235299	-8.523301	 25.183850	-1.307776
-0.092452	 1.259667	 0.179678	-0.402818	-5.203299	 156.226100	-155.038100	 13.188540	-52.333820	 4.952704	-17.967010	-3.197179	-18.880550	 59.504360	 14.496740	 1.147310	 26.489810	-2.653837	 172.892600	 16.245500	 17.088420	-0.386346	-5.085478	 1.493005	-9.318049	 50.919760	 9.515132	-1.275707	 28.197460	 2.704912	 1.995358	 4.498304	 27.917130	-21.134610	-3.352081	 16.812320	 10.059740	 2.064693	 7.856619	-106.803700	 7.260546	 93.512140	 33.498660	 44.274170	-0.169640	 5.180760	-0.239503	 0.321011	 11.991850	 17.702530	 36.250800	 5.436805	-6.395933	 0.337717	-5.898178	 16.967160	 1.882512	 5.225296	 1.873047	-0.216015	 3.004767	-6.940665	 1.926103	-1.694289	-7.034985	 12.500830	 119.096200	 11.052180	-95.874050	-10.636250	 51.691810	 4.707827	-5.214479	-0.183374	-0.343588	-7.128819	-3.955875	 11.163970	-4.100038	 10.436620	 0.914842	 14.266850	 37.579770	-9.195946	-8.523813	 25.091070	-1.301516
-0.087068	 1.258373	 0.182005	-0.095524	-4.506100	 157.266900	-155.342800	 12.754280	-50.874280	 4.862472	-17.660860	-3.308596	-18.618140	 59.190730	 14.242670	 1.148704	 26.508720	-2.654386	 173.083800	 15.373970	 17.730250	-0.386932	-5.093617	 2.104795	-8.485456	 51.375100	 8.153377	-1.276247	 28.204610	 2.705139	 2.108842	 5.273597	 23.980540	-19.401650	-3.326176	 14.422830	 8.433954	 2.043548	 10.475200	-107.379200	 7.329988	 93.505830	 32.453210	 43.827790	 0.391591	 5.168674	-0.240925	 0.292270	 13.232240	 15.961770	 27.073830	 5.099277	-5.378449	 0.214793	-5.901134	 16.725140	 1.856381	 5.208622	 1.489683	-0.223724	 3.021822	-6.949767	 1.821084	-1.607835	-7.063584	 12.479640	 119.554200	 10.994740	-95.954290	-9.115119	 51.703130	 3.666410	-5.188315	-0.183920	-0.314813	-9.468946	-2.750045	 1.064337	-3.948073	 9.959734	 0.903057	 14.048330	 36.277110	-8.784894	-8.528685	 24.071820	-1.233110
-0.076785	 1.256210	 0.184949	 0.445149	-3.497772	 159.659300	-155.919600	 12.327130	-47.889610	 4.648106	-16.929380	-2.274742	-16.085670	 58.765930	 11.449450	 1.151062	 26.540720	-2.655317	 173.429600	 13.903300	 19.144930	-0.388147	-5.109512	 3.216434	-6.975445	 52.271370	 5.951172	-1.278503	 28.234370	 2.706089	 2.280588	 6.074827	 17.874430	-15.984820	-2.795508	 10.979380	 6.006454	 2.011125	 12.720150	-108.410400	 7.175872	 93.410920	 30.835590	 43.576900	 0.484543	 5.114138	-0.242732	 0.227549	 13.517670	 12.768850	 15.887070	 4.283404	-2.897542	 0.032386	-5.908375	 16.167070	 1.796196	 5.169852	 0.602642	-0.241986	 3.050755	-6.927565	 1.652626	-1.553280	-6.836737	 11.888960	 120.247500	 10.886730	-96.033570	-7.864452	 50.993850	 2.042707	-5.113572	-0.184497	-0.250101	-10.567490	-1.780769	-11.954520	-3.655614	 9.053020	 0.891032	 13.687200	 33.895280	-8.066348	-8.534259	 22.112550	-1.103314
-0.062543	 1.254969	 0.187004	 1.181560	-2.732617	 163.291800	-156.598400	 12.133950	-43.909230	 4.163176	-15.252990	-0.932684	-12.860830	 57.705720	 8.049240	 1.154233	 26.583720	-2.656570	 173.428600	 14.564870	 21.234010	-0.743861	-9.723331	 4.676205	-5.275115	 55.758980	 3.987800	-1.281537	 28.274350	 2.707367	 2.579610	 6.219847	 10.205360	-10.000320	-1.854406	 6.516849	 2.600717	 1.949232	 13.931560	-109.796300	 6.971456	 93.279050	 28.256780	 44.126840	 1.068555	 5.026950	-0.244486	 0.140572	 13.107180	 9.213597	 4.331403	 3.198685	 0.445591	-0.157126	-5.919031	 15.417270	 1.715478	 5.117309	-0.589316	-0.267472	 3.089728	-6.897871	 1.426300	-1.480913	-6.446809	 10.627790	 121.178500	 10.740110	-96.137950	-7.492028	 49.297470	 0.620599	-5.000123	-0.184832	-0.163048	-9.188248	-0.358341	-25.764000	-3.263979	 7.834496	 0.882274	 13.270710	 30.684510	-7.156103	-8.534223	 19.477420	-0.931686
